<svg width="24" height="23" viewBox="0 0 24 23" fill="none" xmlns="http://www.w3.org/2000/svg">
<path id="Vector" d="M17.233 14.6404C17.5404 14.6404 17.836 14.7593 18.0578 14.9723L23.4439 20.1444C23.9529 20.6331 23.9525 21.4474 23.443 21.9356C22.9633 22.3953 22.2067 22.3957 21.7265 21.9365L16.2256 16.6753C16.0171 16.476 15.8992 16.2 15.8992 15.9116V15.5636C15.8992 15.4117 15.8386 15.2661 15.7309 15.159C15.5219 14.9513 15.1951 14.9405 14.9673 15.1134C13.474 16.2461 11.5897 16.9205 9.54926 16.9205C4.71258 16.9205 0.804883 13.1651 0.804883 8.54774C0.804883 3.93035 4.71258 0.175 9.54926 0.175C14.386 0.175 18.2936 3.93035 18.2936 8.54774C18.2936 10.4909 17.5969 12.2875 16.4231 13.7152C16.2353 13.9435 16.2464 14.2859 16.4705 14.493C16.5731 14.5878 16.7076 14.6404 16.8472 14.6404H17.233ZM3.19931 8.54774C3.19931 11.9258 6.0429 14.6404 9.54926 14.6404C13.0556 14.6404 15.8992 11.9258 15.8992 8.54774C15.8992 5.1697 13.0556 2.45507 9.54926 2.45507C6.0429 2.45507 3.19931 5.1697 3.19931 8.54774Z" fill="black" stroke="white" stroke-width="0.35"/>
</svg>
