<svg width="12" height="13" viewBox="0 0 12 13" fill="none" xmlns="http://www.w3.org/2000/svg">
<path d="M5.30854 6.97676C5.30854 6.86686 5.30854 6.79923 5.30854 6.73583C5.30854 4.73231 5.30854 2.73301 5.30854 0.729492C5.30854 0.332169 5.51988 0.070105 5.88339 0.00247551C6.22576 -0.0609271 6.57659 0.175776 6.64844 0.51815C6.67381 0.628048 6.67803 0.742173 6.67803 0.856297C6.67803 2.81332 6.67803 4.77458 6.67803 6.73161C6.67803 6.79501 6.67803 6.85841 6.67803 6.93449C6.75834 6.93027 6.78793 6.87109 6.82597 6.83305C7.48536 6.17366 8.14475 5.51428 8.80836 4.85489C9.00702 4.65623 9.2395 4.59282 9.50579 4.66891C9.76785 4.74499 9.92425 4.93097 9.97497 5.19726C10.0257 5.45933 9.92002 5.67067 9.73827 5.85242C9.07465 6.51604 8.41104 7.17965 7.74742 7.84326C7.33319 8.25749 6.91896 8.67595 6.5005 9.09018C6.2004 9.39029 5.7904 9.39452 5.49452 9.09864C4.40822 8.01234 3.32192 6.92181 2.23562 5.83552C1.99469 5.59459 1.93552 5.30716 2.0581 5.03664C2.23985 4.64355 2.71748 4.51674 3.06831 4.76612C3.13171 4.81262 3.19089 4.8718 3.25006 4.92674C3.88409 5.56077 4.51812 6.1948 5.15214 6.8246C5.19441 6.86686 5.23668 6.90491 5.31276 6.97676H5.30854Z" fill="#EE2F27"/>
<path d="M5.98513 12.6299C4.67904 12.6299 3.37294 12.6299 2.06685 12.6299C0.883335 12.6299 0.00415231 11.7508 -7.45292e-05 10.563C-7.45292e-05 10.1403 -0.00430137 9.72188 -7.45292e-05 9.2992C0.00415231 8.96105 0.240855 8.68208 0.549415 8.63136C0.891789 8.57641 1.20035 8.74548 1.31447 9.05827C1.35251 9.16394 1.36519 9.27806 1.36519 9.39219C1.36519 9.78106 1.36519 10.1699 1.36519 10.5588C1.36519 11.0111 1.61035 11.2604 2.06262 11.2604C3.41521 11.2604 4.77203 11.2604 6.12462 11.2604C7.35885 11.2604 8.59732 11.2604 9.83156 11.2604C10.3768 11.2604 10.6051 11.0322 10.6093 10.4827C10.6093 10.0938 10.6093 9.70497 10.6093 9.3161C10.6093 8.93569 10.8714 8.64404 11.218 8.6229C11.628 8.60177 11.9323 8.8427 11.9577 9.24425C11.9915 9.83178 12.0253 10.4235 11.9238 11.0026C11.759 11.941 10.9305 12.6215 9.97527 12.6257C8.64381 12.6257 7.31236 12.6257 5.97668 12.6257L5.98513 12.6299Z" fill="#EE2F27"/>
</svg>
