<svg width="75" height="75" viewBox="0 0 75 75" fill="none" xmlns="http://www.w3.org/2000/svg">
<circle cx="37.5" cy="37.5" r="37.5" fill="#FFFBF2"/>
<ellipse cx="37.8709" cy="37.4997" rx="29.703" ry="29.3317" fill="#FFF6E4"/>
<path d="M37.4752 53.4185C37.4752 53.4185 37.4139 53.4065 37.3771 53.3946L15.3064 45.9299C15.1225 45.8701 15 45.7027 15 45.4993V41.8029C15 41.7431 15 41.7072 15.0123 41.6832C15.0123 41.6832 15.0368 41.6115 15.0368 41.5995C15.049 41.5636 15.0613 41.5517 15.0858 41.5277C15.1103 41.4918 15.1225 41.4799 15.1471 41.456L15.2206 41.4081C15.2451 41.3961 15.2696 41.3842 15.2941 41.3722L22.9411 38.7883C23.1126 38.7285 23.2229 38.573 23.2229 38.3935V26.12C23.2229 26.0602 23.2229 26.0362 23.2352 26.0123C23.2352 25.9764 23.2597 25.9525 23.2597 25.9286C23.2719 25.8927 23.2965 25.8688 23.3087 25.8568C23.3332 25.8209 23.3455 25.8089 23.37 25.785L23.4313 25.7491C23.4313 25.7491 23.5048 25.7132 23.5293 25.7013C23.5538 25.7013 23.5783 25.6774 23.5906 25.6774L37.3894 21.0239C37.3894 21.0239 37.4874 21 37.5365 21C37.5855 21 37.6345 21 37.6835 21.0239L51.5314 25.7013C51.5314 25.7013 51.5804 25.7252 51.6049 25.7372L51.6907 25.797C51.7029 25.797 51.7152 25.8329 51.7397 25.8448C51.7642 25.8688 51.7765 25.8927 51.7887 25.9166C51.801 25.9525 51.8132 25.9764 51.8132 26.0003C51.8132 26.0362 51.8255 26.0602 51.8255 26.0841V38.3935C51.8255 38.573 51.948 38.7285 52.1073 38.7883L59.7543 41.3722C59.7543 41.3722 59.8156 41.3961 59.8401 41.4081C59.8401 41.4081 59.9259 41.4679 59.9381 41.4799C59.9381 41.4799 59.9504 41.5038 59.9626 41.5158C59.9871 41.5517 59.9994 41.5636 60.0116 41.5875C60.0239 41.6234 60.0361 41.6354 60.0361 41.6593C60.0361 41.6952 60.0484 41.7191 60.0484 41.7431V45.4754C60.0484 45.6668 59.9259 45.8342 59.742 45.906L37.6467 53.3707C37.6467 53.3707 37.561 53.3946 37.5487 53.3946C37.5487 53.3946 37.5119 53.3946 37.4874 53.3946C37.4629 53.3946 37.4384 53.3946 37.4139 53.3946L37.4752 53.4185ZM33.5046 48.4062C33.4189 48.4062 33.3331 48.4301 33.2596 48.478C33.1493 48.5497 33.088 48.6813 33.088 48.8129V50.6791C33.088 50.8585 33.1983 51.014 33.3698 51.0738L36.5316 52.1385C36.5316 52.1385 36.6174 52.1624 36.6664 52.1624C36.7522 52.1624 36.8379 52.1385 36.9115 52.0907C37.0218 52.0189 37.083 51.8873 37.083 51.7557V49.8895C37.083 49.7101 36.9727 49.5546 36.8012 49.4948L33.6395 48.4301C33.6395 48.4301 33.5537 48.4062 33.5046 48.4062ZM58.7494 42.6044C58.7494 42.6044 58.6514 42.6044 58.6146 42.6283L38.2962 49.4948C38.1247 49.5546 38.0144 49.7101 38.0144 49.8895V51.7557C38.0144 51.8873 38.0757 52.0189 38.186 52.0907C38.2595 52.1385 38.3453 52.1624 38.4311 52.1624C38.4801 52.1624 38.5291 52.1624 38.5659 52.1385L58.8842 45.272C59.0558 45.2122 59.1661 45.0567 59.1661 44.8772V43.0111C59.1661 42.8795 59.1048 42.7479 58.9945 42.6761C58.921 42.6283 58.8352 42.6044 58.7494 42.6044ZM21.2622 44.2672C21.1764 44.2672 21.0906 44.2911 21.0171 44.3389C20.9068 44.4107 20.8455 44.5423 20.8455 44.6739V46.552C20.8455 46.7314 20.9558 46.887 21.1274 46.9468L31.6052 50.4877C31.6052 50.4877 31.6909 50.5116 31.74 50.5116C31.8258 50.5116 31.9115 50.4877 31.9851 50.4398C32.0954 50.3561 32.1566 50.2365 32.1566 50.1049V48.2268C32.1566 48.0473 32.0463 47.8918 31.8748 47.832L21.397 44.2911C21.397 44.2911 21.3112 44.2672 21.2622 44.2672ZM54.7053 40.6425C54.7053 40.6425 54.6073 40.6425 54.5705 40.6664L51.6784 41.6474C51.5926 41.6832 51.5681 41.6952 51.5436 41.7072L37.6958 46.3845L37.6222 46.3965C37.5977 46.3965 37.5732 46.3965 37.5487 46.4204L35.1835 47.2219C35.012 47.2817 34.9017 47.4372 34.9017 47.6167C34.9017 47.7961 35.012 47.9516 35.1835 48.0114L37.4017 48.7651C37.4017 48.7651 37.4874 48.789 37.5365 48.789C37.5855 48.789 37.6345 48.789 37.6713 48.7651L57.0582 42.2096C57.2298 42.1498 57.3401 41.9943 57.3401 41.8148C57.3401 41.6354 57.2298 41.4799 57.0582 41.4201L54.8401 40.6664C54.8401 40.6664 54.7544 40.6425 54.7053 40.6425ZM25.2817 42.3173C25.2817 42.3173 25.1837 42.3173 25.1469 42.3412L22.9411 43.0829C22.7695 43.1427 22.6592 43.2982 22.6592 43.4776C22.6592 43.6571 22.7695 43.8126 22.9411 43.8724L32.4753 47.1023C32.4753 47.1023 32.561 47.1262 32.6101 47.1262C32.6591 47.1262 32.7081 47.1262 32.7449 47.1023L34.9507 46.3606C35.1223 46.3008 35.2326 46.1453 35.2326 45.9658C35.2326 45.7864 35.1223 45.6309 34.9507 45.5711L25.4165 42.3531C25.4165 42.3531 25.3307 42.3292 25.2817 42.3292V42.3173ZM16.3358 42.6044C16.25 42.6044 16.1642 42.6283 16.0907 42.6761C15.9804 42.7479 15.9191 42.8795 15.9191 43.0111V44.8892C15.9191 45.0686 16.0294 45.2242 16.201 45.284L19.3627 46.3486C19.3627 46.3486 19.4485 46.3726 19.4975 46.3726C19.5833 46.3726 19.6691 46.3486 19.7426 46.3008C19.8529 46.229 19.9141 46.0974 19.9141 45.9658V44.0877C19.9141 43.9083 19.8039 43.7528 19.6323 43.6929L16.4706 42.6283C16.4706 42.6283 16.3848 42.6044 16.3358 42.6044ZM50.5142 26.9334C50.5142 26.9334 50.4162 26.9334 50.3794 26.9573L38.2962 31.0366C38.1247 31.0964 38.0144 31.2519 38.0144 31.4313V44.7457C38.0144 44.8772 38.0757 45.0088 38.186 45.0806C38.2595 45.1285 38.3453 45.1524 38.4311 45.1524C38.4801 45.1524 38.5291 45.1524 38.5659 45.1285L50.649 41.0492C50.8206 40.9894 50.9309 40.8339 50.9309 40.6545V27.3402C50.9309 27.2086 50.8696 27.077 50.7593 27.0052C50.6858 26.9573 50.6 26.9334 50.5142 26.9334ZM24.5709 26.9334C24.4852 26.9334 24.3994 26.9573 24.3259 27.0052C24.2156 27.0889 24.1543 27.2086 24.1543 27.3402V40.6545C24.1543 40.8339 24.2646 40.9894 24.4361 41.0492L36.5193 45.1285C36.5193 45.1285 36.6051 45.1524 36.6541 45.1524C36.7399 45.1524 36.8257 45.1285 36.8992 45.0806C37.0095 45.0088 37.0708 44.8772 37.0708 44.7457V31.4313C37.0708 31.2519 36.9605 31.0964 36.7889 31.0366L33.8845 30.0556C33.8845 30.0556 33.7988 30.0317 33.7497 30.0317C33.664 30.0317 33.5782 30.0556 33.5046 30.1035C33.3944 30.1753 33.3331 30.3069 33.3331 30.4384V34.745C33.3331 34.8885 33.2596 35.0321 33.137 35.1158C33.0635 35.1756 32.9654 35.1995 32.8674 35.1995C32.8184 35.1995 32.7694 35.1995 32.7203 35.1756L28.1983 33.6444C28.0145 33.5846 27.892 33.4052 27.892 33.2138V28.3091C27.892 28.1297 27.7817 27.9742 27.6101 27.9144L24.7057 26.9334C24.7057 26.9334 24.62 26.9095 24.5709 26.9095V26.9334ZM22.8063 39.8171C22.8063 39.8171 22.7082 39.8171 22.6715 39.841L18.0269 41.4081C17.8554 41.4679 17.7451 41.6234 17.7451 41.8029C17.7451 41.9823 17.8554 42.1378 18.0269 42.1976L20.245 42.9513C20.245 42.9513 20.3308 42.9752 20.3798 42.9752C20.4288 42.9752 20.4779 42.9752 20.5146 42.9513L23.0636 42.09C23.1862 42.0541 23.2719 41.9584 23.321 41.8507C23.37 41.7311 23.3577 41.6115 23.2965 41.5038C23.2597 41.432 23.2352 41.3603 23.2352 41.2885V40.2477C23.2352 40.1161 23.1739 39.9846 23.0636 39.9128C22.9901 39.8649 22.9043 39.841 22.8185 39.841L22.8063 39.8171ZM29.24 28.5125C29.1542 28.5125 29.0684 28.5364 28.9949 28.5843C28.8846 28.668 28.8233 28.7876 28.8233 28.9192V32.6156C28.8233 32.7951 28.9336 32.9506 29.1052 33.0104L31.8503 33.9435C31.8503 33.9435 31.936 33.9674 31.9851 33.9674C32.0708 33.9674 32.1566 33.9435 32.2302 33.8956C32.3404 33.8239 32.4017 33.6923 32.4017 33.5607V29.8642C32.4017 29.6848 32.2914 29.5293 32.1199 29.4695L29.3748 28.5364C29.3748 28.5364 29.289 28.5125 29.24 28.5125ZM46.7275 25.0553C46.7275 25.0553 46.6295 25.0553 46.5927 25.0792L35.4409 28.8474C35.2693 28.9072 35.159 29.0628 35.159 29.2422C35.159 29.4216 35.2693 29.5771 35.4409 29.637L37.4017 30.3069C37.4017 30.3069 37.4874 30.3308 37.5365 30.3308C37.5855 30.3308 37.6345 30.3308 37.6713 30.3069L48.8231 26.5387C48.9946 26.4788 49.1049 26.3233 49.1049 26.1439C49.1049 25.9645 48.9946 25.8089 48.8231 25.7491L46.8501 25.0792C46.8501 25.0792 46.7643 25.0553 46.7153 25.0553H46.7275ZM42.2055 23.5241C42.2055 23.5241 42.1075 23.5241 42.0707 23.548L30.9189 27.3162C30.7473 27.376 30.637 27.5316 30.637 27.711C30.637 27.8904 30.7473 28.0459 30.9189 28.1058L32.7326 28.7158C32.7326 28.7158 32.8184 28.7398 32.8674 28.7398C32.9164 28.7398 32.9654 28.7398 33.0022 28.7158L44.154 24.9476C44.3256 24.8878 44.4359 24.7323 44.4359 24.5529C44.4359 24.3734 44.3256 24.2179 44.154 24.1581L42.3403 23.548C42.3403 23.548 42.2545 23.5241 42.2055 23.5241ZM37.5365 21.945C37.5365 21.945 37.4384 21.945 37.4017 21.969L26.2498 25.7372C26.0783 25.797 25.968 25.9525 25.968 26.1319C25.968 26.3114 26.0783 26.4669 26.2498 26.5267L28.2106 27.1966C28.2106 27.1966 28.2964 27.2205 28.3454 27.2205C28.3944 27.2205 28.4434 27.2205 28.4802 27.1966L39.632 23.4284C39.8036 23.3686 39.9139 23.2131 39.9139 23.0336C39.9139 22.8542 39.8036 22.6987 39.632 22.6389L37.6713 21.969C37.6713 21.969 37.5855 21.945 37.5365 21.945Z" fill="#ED2D26"/>
<path d="M60.1091 45.4996V41.7672C60.1091 41.7672 60.1091 41.7194 60.0846 41.6835C60.0846 41.6596 60.0724 41.6356 60.0601 41.6117C60.0601 41.5878 60.0356 41.5639 60.0111 41.5399C59.9988 41.516 59.9743 41.5041 59.9866 41.5041C59.9866 41.5041 59.9008 41.4442 59.8886 41.4323C59.864 41.4203 59.8395 41.4084 59.8028 41.3964L52.1558 38.8125C52.0088 38.7646 51.8985 38.633 51.8862 38.4775V41.4323L38.8227 46.0139L37.6952 46.3967L23.3082 41.528L23.1121 39.9729C23.1979 40.0446 23.2469 40.1523 23.2469 40.26V38.4297C23.2469 38.6091 23.1366 38.7646 22.965 38.8245L15.3058 41.3844C15.2813 41.3844 15.2568 41.4084 15.2323 41.4203L15.1588 41.4682C15.1343 41.4801 15.122 41.5041 15.0975 41.5399C15.0852 41.5639 15.073 41.5878 15.0485 41.6117C15.0485 41.6117 15.024 41.6835 15.024 41.6955C15.024 41.7194 15.024 41.7433 15.0117 41.8151V45.5115C15.0117 45.7029 15.1343 45.8704 15.3181 45.9422L37.3889 53.4068C37.3889 53.4068 37.4746 53.4307 37.4869 53.4307C37.5114 53.4307 37.5359 53.4307 37.5604 53.4307C37.5849 53.4307 37.6094 53.4307 37.6217 53.4307C37.6217 53.4307 37.7075 53.4068 37.7197 53.4068L59.815 45.9422C59.9988 45.8824 60.1214 45.7029 60.1214 45.5115L60.1091 45.4996Z" fill="#FBAE17"/>
</svg>
